<svg width="91" height="91" viewBox="0 0 91 91" fill="none" xmlns="http://www.w3.org/2000/svg">
<path d="M23.8497 48.1954L42.808 67.1537C43.1686 67.4989 43.5938 67.7695 44.0593 67.9499C44.9824 68.3292 46.0178 68.3292 46.9409 67.9499C47.4064 67.7695 47.8316 67.4989 48.1922 67.1537L67.1505 48.1954C67.5041 47.8418 67.7845 47.4221 67.9758 46.9602C68.1671 46.4983 68.2656 46.0032 68.2656 45.5033C68.2656 44.4936 67.8645 43.5252 67.1505 42.8112C66.4365 42.0972 65.4682 41.6961 64.4584 41.6961C63.4487 41.6961 62.4803 42.0972 61.7664 42.8112L49.2918 55.3237L49.2918 26.545C49.2918 25.5393 48.8923 24.5749 48.1812 23.8638C47.4701 23.1528 46.5057 22.7533 45.5001 22.7533C44.4945 22.7533 43.5301 23.1528 42.819 23.8638C42.1079 24.5749 41.7084 25.5393 41.7084 26.545L41.7084 55.3237L29.2339 42.8112C28.8814 42.4558 28.462 42.1737 28 41.9812C27.5379 41.7887 27.0423 41.6896 26.5418 41.6896C26.0412 41.6896 25.5456 41.7887 25.0836 41.9812C24.6215 42.1737 24.2022 42.4558 23.8497 42.8112C23.4943 43.1637 23.2122 43.583 23.0197 44.0451C22.8272 44.5071 22.7281 45.0027 22.7281 45.5033C22.7281 46.0038 22.8272 46.4994 23.0197 46.9615C23.2122 47.4235 23.4943 47.8429 23.8497 48.1954Z" fill="black"/>
</svg>
