<svg width="121" height="121" viewBox="0 0 121 121" fill="none" xmlns="http://www.w3.org/2000/svg">
<path d="M64.0813 89.2929L89.2896 64.0846C89.7486 63.6051 90.1084 63.0397 90.3484 62.4208C90.8526 61.1934 90.8526 59.8166 90.3484 58.5892C90.1084 57.9703 89.7486 57.4049 89.2896 56.9254L64.0813 31.7171C63.6112 31.247 63.0531 30.8741 62.439 30.6197C61.8248 30.3653 61.1665 30.2344 60.5017 30.2344C59.1591 30.2344 57.8715 30.7677 56.9221 31.7171C55.9728 32.6665 55.4394 33.9541 55.4394 35.2967C55.4394 36.6393 55.9728 37.9269 56.9221 38.8763L73.5596 55.4633H35.2934C33.9562 55.4633 32.6739 55.9945 31.7284 56.94C30.7829 57.8855 30.2517 59.1679 30.2517 60.505C30.2517 61.8421 30.7829 63.1245 31.7284 64.07C32.6739 65.0155 33.9562 65.5467 35.2934 65.5467H73.5596L56.9221 82.1338C56.4496 82.6024 56.0745 83.1601 55.8185 83.7744C55.5626 84.3888 55.4308 85.0478 55.4308 85.7133C55.4308 86.3789 55.5626 87.0379 55.8185 87.6522C56.0745 88.2666 56.4496 88.8242 56.9221 89.2929C57.3908 89.7655 57.9484 90.1405 58.5628 90.3965C59.1772 90.6525 59.8361 90.7842 60.5017 90.7842C61.1673 90.7842 61.8262 90.6525 62.4406 90.3965C63.055 90.1405 63.6126 89.7655 64.0813 89.2929Z" fill="#FFD913"/>
</svg>
