<svg width="183" height="59" viewBox="0 0 183 59" fill="none" xmlns="http://www.w3.org/2000/svg">
<path d="M135.049 16.099L131.905 12.71L126.041 5.96543L126.03 5.93199L122.741 2.11936C122.619 1.91869 122.518 1.75147 122.463 1.60654C122.385 1.46162 122.318 1.33899 122.251 1.24981C122.184 1.14948 122.106 1.10488 122.017 1.08259H122.006C121.76 1.038 121.649 1.32784 121.66 1.94098V1.95213C121.649 2.07476 121.66 2.26428 121.682 2.53183C121.705 2.81054 121.693 3.06694 121.66 3.2899C121.615 3.51286 121.615 3.85845 121.649 4.33781L121.66 5.63099L121.671 5.76477L121.716 10.2017C121.682 10.4247 121.682 10.6811 121.716 10.9821V14.0924H121.693L121.705 30.5469L121.682 30.6026L121.727 43.5678L121.738 43.657L121.727 44.3482L121.738 44.3705L121.783 55.4293L121.749 57.2353C121.727 57.5252 121.816 57.7258 122.017 57.8262C122.139 57.8931 122.307 57.9265 122.507 57.9377H123.444C124.447 58.0157 124.96 57.8262 124.971 57.3468L125.06 54.7716L125.049 44.939L125.105 43.5344L125.094 40.8811L125.16 38.9302L125.183 32.0184H125.16L125.239 20.4356L125.172 16.478V16.4557L125.205 14.215C125.283 13.7022 125.138 13.1336 124.759 12.5093C124.48 11.9854 124.402 11.5618 124.536 11.2608C124.77 11.0155 125.105 11.1381 125.517 11.6175L126.42 12.5651L126.476 12.6097L132.318 18.3063L137.178 23.3341L139.218 25.6083L143.923 30.6249L148.226 35.0173L148.215 35.0396L149.519 36.3439L151.492 38.54C151.804 39.064 152.083 39.2981 152.317 39.2535C152.574 39.2312 152.785 39.064 152.964 38.7519L152.953 38.7296C153.075 38.4954 153.209 38.3171 153.365 38.2056L154.435 37.0685L160.979 30.4354L163.978 27.2471L164.011 27.2359L171.414 19.4323L173.041 17.6486H173.064L175.695 14.7612C177.177 13.39 178.136 12.7992 178.549 12.9664C178.827 13.1448 178.95 13.6241 178.939 14.4157L178.894 15.6085L179.006 23.8246L179.028 28.0274L179.05 28.072L179.151 35.898L179.117 35.9091L179.184 55.2733C179.195 55.8976 179.151 56.533 179.061 57.1573V57.1907C178.994 57.6032 179.273 57.8819 179.897 57.9934L181.436 58.0157C181.447 58.0157 181.458 58.0157 181.458 58.0268C182.272 58.1049 182.673 57.8708 182.673 57.2911L182.718 56.2766L182.985 21.4278L182.941 14.5271L182.997 12.9887L182.907 4.67226V2.77709C182.941 2.33116 182.885 2.01902 182.74 1.8518C182.495 1.65113 182.239 1.71803 181.982 2.06361L181.581 2.62102L179.585 4.99555L175.906 8.89737L174.413 10.5696L172.696 12.632L169.641 15.9652L168.939 16.6341L161.626 24.2371L159.876 26.2549H159.864C159.418 26.8346 158.894 27.4031 158.315 27.9605L157.746 28.5068L155.762 30.6807L152.707 33.4454C152.206 33.7798 151.76 33.6795 151.358 33.1221L151.325 33.0998C150.478 32.1076 149.251 30.8479 147.668 29.3095L144.458 25.8759L135.049 16.099Z" fill="white"/>
<path d="M12.0781 34.9986C11.7994 35.6563 11.4873 36.3252 11.1417 36.9718L8.86749 41.3418C8.62223 41.8881 8.31009 42.5012 7.9422 43.1813L5.367 47.9972L4.14072 50.4164C3.88431 50.8065 3.66135 51.219 3.49413 51.6315C3.42724 51.8433 3.30461 52.0886 3.11509 52.3896C2.90328 52.6794 2.75836 52.9581 2.65802 53.2034C2.30129 53.8834 1.89995 54.5746 1.42059 55.2881L0.0605281 57.3393C-0.106693 57.7183 0.0716755 57.9078 0.606782 57.919L2.62458 57.7518L2.63573 57.841L3.94005 57.7072C4.39712 57.6514 4.7873 57.5177 5.0883 57.2724C5.3893 57.0272 5.65685 56.5924 5.86866 55.9681C6.13622 55.3215 6.43721 54.6638 6.79395 54.006L14.5753 38.722L17.4738 32.9139L20.0936 27.8638L21.1861 25.9798L21.7658 24.7981C22.3232 23.7725 22.8137 22.8026 23.2373 21.8996L24.2072 19.8818C24.7089 18.6778 25.2886 17.4404 25.9686 16.1918L26.5037 14.9878C26.8159 14.4081 27.05 13.9399 27.1949 13.6055C27.2395 13.4048 27.3064 13.2153 27.3956 13.0592L28.254 11.4093C28.5438 10.8408 28.7779 10.2722 28.9674 9.70367C29.235 9.21315 29.3688 8.6669 29.3799 8.0872C29.3353 7.51865 29.4691 7.18421 29.7812 7.06158C29.9596 7.05043 30.1045 7.11732 30.1937 7.27339C30.2829 7.44061 30.3498 7.59668 30.4055 7.75276C30.4501 7.89768 30.5505 8.15409 30.7065 8.53312C30.8292 8.85641 31.0633 9.34693 31.3977 9.99351L32.5125 11.9779L37.6295 22.379L39.7365 26.9832L40.1266 28.1203L40.5391 29.0009L41.6539 31.5762L42.7018 33.6608L43.7609 36.1246L47.908 44.6417C48.6883 46.2024 49.4464 47.7631 50.1599 49.335L51.4976 52.0105L53.0026 54.7418C53.1476 54.9982 53.2925 55.2769 53.4374 55.5891C53.5266 55.8455 53.6604 56.1019 53.8053 56.3471L54.2178 57.0049C54.4519 57.3504 54.686 57.6069 54.9201 57.7629C55.2099 57.9413 55.5444 57.9636 55.9123 57.8298C56.2802 57.7741 56.648 57.7629 57.0048 57.8187C57.5287 57.9747 57.9078 57.9747 58.1419 57.841C58.4094 57.6514 58.3091 57.2724 57.852 56.7262L56.1018 53.4263L54.5522 49.7809L53.3259 47.2057L51.6983 44.0731L47.2614 34.9986L45.422 31.0187L40.829 21.4091L39.0453 17.4404C38.421 16.4482 37.9751 15.4672 37.6964 14.4862L37.5849 14.2855C36.6819 12.1116 35.6117 9.81515 34.3742 7.38487C33.9729 6.33696 33.5716 5.54544 33.1702 5.03263C32.8247 4.00701 32.323 2.94794 31.643 1.85544C31.0744 0.774074 30.6508 0.160934 30.3609 0.00486111C30.0376 -0.0508792 29.6809 0.372743 29.2907 1.27574L27.5182 4.96574L26.2919 7.31798L25.1548 9.26889L22.156 15.2331L20.6956 18.388L18.8673 21.9665L18.2764 22.7803L12.0781 34.9986Z" fill="white"/>
</svg>
