<svg width="40" height="40" viewBox="0 0 40 40" fill="none" xmlns="http://www.w3.org/2000/svg">
<path d="M31.729 5.96532L31.8433 5.81302C29.3456 3.30772 26.49 1.67052 23.2689 0.90903C21.8678 0.58159 20.3981 0.414062 18.8599 0.414062C17.3217 0.414062 15.8596 0.58159 14.4585 0.90903C11.2526 1.67052 8.39703 3.30772 5.90696 5.81302C2.32035 9.43009 0.52324 13.7858 0.515625 18.8802C0.52324 23.9745 2.32035 28.315 5.90696 31.9168C5.91458 31.9245 5.92981 31.9321 5.93742 31.9473L6.10495 31.7569C3.8814 28.6653 2.76963 25.1091 2.76963 21.0885C2.76202 15.9941 4.5439 11.646 8.11528 8.04418C11.7019 4.44995 16.0271 2.66046 21.0987 2.66807C25.0889 2.65284 28.6298 3.76462 31.6986 5.99578L31.729 5.96532Z" fill="#727272"/>
<path d="M34.0755 8.04688L33.8623 8.2144C36.1011 11.3137 37.2205 14.8698 37.2281 18.8829C37.2281 23.9772 35.431 28.3177 31.8444 31.9195C28.2578 35.5214 23.9325 37.3185 18.861 37.3109C14.8632 37.3109 11.3299 36.1915 8.25347 33.9603L8.08594 34.1126L8.1164 34.1507C11.703 37.7525 16.0283 39.5573 21.0998 39.5649C26.1637 39.5573 30.4965 37.7525 34.0755 34.1507C37.6698 30.5412 39.4593 26.1855 39.4669 21.0912C39.4593 15.9968 37.6698 11.6487 34.0755 8.04688Z" fill="white"/>
<path d="M8.08594 34.1094C8.10081 34.1242 8.10825 34.1317 8.11569 34.1466L8.08594 34.1094Z" fill="#616D81"/>
</svg>
