<svg width="68" height="7" viewBox="0 0 68 7" fill="none" xmlns="http://www.w3.org/2000/svg">
<path d="M5.45299 6.88007L4.74125 5.28211H2.3264L1.59617 6.88007H0.476562L2.53265 2.40625H3.65226L5.64768 6.88007H5.45299ZM3.54884 2.62346L2.41133 5.09666H4.65632L3.54942 2.62346H3.54884Z" fill="white"/>
<path d="M9.90002 6.97597C9.2368 6.97597 9.01207 6.50917 8.76827 5.9407C8.69548 5.77432 8.61633 5.59581 8.5187 5.42307L8.33036 5.00134H6.09807V6.88007H5.92188V2.40625H6.09807V2.4126H8.10563C9.56552 2.4126 9.73595 2.84704 9.73595 4.13824C9.6932 4.694 9.29804 5.00076 8.78098 5.00076H8.52563L8.96354 5.95283C9.09122 6.23418 9.27377 6.59814 9.51121 6.72004C9.4806 6.65591 9.46269 6.58601 9.46269 6.50917C9.46269 6.24689 9.66315 6.04238 9.90695 6.04238C10.1507 6.04238 10.3512 6.24689 10.3512 6.50282C10.3512 6.75874 10.138 6.97597 9.90117 6.97597H9.90002ZM9.55916 4.14459C9.55916 3.68415 9.12125 3.5247 8.64059 3.5247H6.09807V4.81589H8.78098C9.17614 4.81589 9.55974 4.57961 9.55974 4.14459H9.55916Z" fill="white"/>
<path d="M10.1328 3.5247V2.40625H14.379V3.5247H12.3414V6.88007H12.1652V3.5247H10.1334H10.1328Z" fill="white"/>
<path d="M20.8735 4.64677C20.8735 5.93796 19.8821 6.97958 18.5984 6.97958H18.3673C17.0594 6.97958 16.0859 5.93796 16.0859 4.64677C16.0859 3.35558 17.0594 2.32031 18.3673 2.32031H18.5984C19.8821 2.32031 20.8735 3.36193 20.8735 4.64677ZM18.3188 5.86113H18.6475C19.7793 5.86113 20.7157 5.31807 20.7157 4.64677C20.7157 3.97547 19.7787 3.43877 18.6475 3.43877H18.3188C17.1813 3.43877 16.2442 3.98182 16.2442 4.64677C16.2442 5.31172 17.1813 5.86113 18.3188 5.86113Z" fill="white"/>
<path d="M21.4126 6.87371H21.2422V2.40625H24.6854V3.5247H21.4126V4.54726H24.1926V4.7327H21.4126V6.87371Z" fill="white"/>
<path d="M26.3281 6.88007L28.9377 2.40625H29.9411V6.26018L32.1919 2.40625H33.1954V6.88007H33.0192V3.00707L30.7684 6.88007H29.7649V3.00707L27.5142 6.88007H26.3281Z" fill="white"/>
<path d="M38.4446 6.88007L37.7329 5.28211H35.318L34.5878 6.88007H33.4688L35.5248 2.40625H36.6439L38.6393 6.88007H38.4446ZM36.5405 2.62346L35.4029 5.09666H37.6474L36.5405 2.62346Z" fill="white"/>
<path d="M42.8844 6.97597C42.2212 6.97597 41.9964 6.50917 41.7526 5.9407C41.6799 5.77432 41.6007 5.59581 41.5031 5.42307L41.3147 5.00134H39.0824V6.88007H38.9062V2.40625H39.0824V2.4126H41.09C42.5499 2.4126 42.7203 2.84704 42.7203 4.13824C42.6776 4.694 42.2824 5.00076 41.7654 5.00076H41.51L41.9479 5.95283C42.0756 6.23418 42.2581 6.59814 42.4956 6.72004C42.465 6.65591 42.4471 6.58601 42.4471 6.50917C42.4471 6.24689 42.6475 6.04238 42.8913 6.04238C43.1351 6.04238 43.3356 6.24689 43.3356 6.50282C43.3356 6.75874 43.1224 6.97597 42.8855 6.97597H42.8844ZM42.5435 4.14459C42.5435 3.68415 42.1056 3.5247 41.625 3.5247H39.0824V4.81589H41.7654C42.1605 4.81589 42.5441 4.57961 42.5441 4.14459H42.5435Z" fill="white"/>
<path d="M47.2594 6.72062C47.2288 6.65649 47.2108 6.58659 47.2108 6.50975C47.2108 6.24747 47.4113 6.04296 47.6551 6.04296C47.8989 6.04296 48.0994 6.24747 48.0994 6.49646C48.0994 6.75875 47.8683 6.97597 47.5944 6.97597C47.0289 6.97597 46.8342 6.65014 46.5725 6.07474L46.0369 4.9118L44.6741 6.88007H43.6094V2.40625H43.7856V6.36879L46.5355 2.40625H47.7764L46.1583 4.74541L46.7302 5.9979C46.8642 6.29195 47.0768 6.6432 47.2594 6.72004V6.72062Z" fill="white"/>
<path d="M48.4062 6.88007V2.40625H52.0256V3.5247H48.5703V4.55361H51.5271V4.73905H48.5703V5.76161H52.0256V6.88007H48.4062Z" fill="white"/>
<path d="M52.2891 3.5247V2.40625H56.5353V3.5247H54.4977V6.88007H54.3215V3.5247H52.2896H52.2891Z" fill="white"/>
<path d="M57.0802 1.96641C56.8127 1.96641 56.5938 1.73648 56.5938 1.45513C56.5938 1.17378 56.8127 0.9375 57.0802 0.9375C57.3477 0.9375 57.5666 1.16743 57.5666 1.45513C57.5666 1.74283 57.3477 1.96641 57.0802 1.96641ZM57.1651 2.40721V6.88102H56.9889V2.40721H57.1651Z" fill="white"/>
<path d="M57.8125 2.40625H58.8772L62.0893 6.33701V2.40625H62.2655V6.88007H61.2008L57.9887 2.9493V6.88007H57.8125V2.40625Z" fill="white"/>
<path d="M64.7806 5.86113H65.1093C65.8332 5.86113 67.0562 5.55435 67.1654 4.79408H65.1278V4.60864H67.3422V6.88368H67.166V5.56071C66.8251 6.39146 66.01 6.97958 65.0914 6.97958H64.8055C63.5888 6.97958 62.5547 5.9888 62.5547 4.64042C62.5547 3.29203 63.5824 2.32031 64.8055 2.32031H65.0914C66.107 2.32031 67.0441 3.06152 67.2815 4.09678L67.0019 4.15456C66.6732 3.73282 65.9493 3.43877 65.1099 3.43877H64.7812C63.6495 3.43877 62.713 3.98182 62.713 4.65312C62.713 5.32443 63.65 5.86113 64.7812 5.86113H64.7806Z" fill="white"/>
</svg>
