<svg width="125" height="40" viewBox="0 0 125 40" fill="none" xmlns="http://www.w3.org/2000/svg">
<path d="M92.2475 10.9947L90.1001 8.67975L86.0947 4.07274L86.0871 4.0499L83.8407 1.44561C83.7569 1.30854 83.6884 1.19431 83.6503 1.09532C83.597 0.996326 83.5513 0.912566 83.5056 0.851647C83.4599 0.783113 83.4066 0.752653 83.3457 0.737423H83.3381C83.1706 0.706964 83.0944 0.904947 83.102 1.32377V1.33138C83.0944 1.41515 83.102 1.5446 83.1172 1.72736C83.1325 1.91773 83.1249 2.09287 83.102 2.24517C83.0716 2.39747 83.0716 2.63353 83.0944 2.96097L83.102 3.8443L83.1096 3.93567L83.1401 6.9664C83.1173 7.1187 83.1173 7.29384 83.1401 7.49944V9.62399H83.1249L83.1325 20.8636L83.1172 20.9016L83.1477 29.7577L83.1553 29.8187L83.1477 30.2908L83.1553 30.306L83.1858 37.86L83.1629 39.0936C83.1477 39.2916 83.2086 39.4287 83.3457 39.4972C83.4295 39.5429 83.5437 39.5657 83.6808 39.5733H84.3204C85.0057 39.6266 85.356 39.4972 85.3636 39.1697L85.4246 37.4107L85.4169 30.6944L85.455 29.7349L85.4474 27.9226L85.4931 26.59L85.5083 21.8687H85.4931L85.5464 13.9569L85.5007 11.2536V11.2383L85.5236 9.70776C85.5769 9.35747 85.4779 8.96911 85.219 8.54268C85.0286 8.18478 84.9753 7.89541 85.0667 7.68981C85.2266 7.52228 85.455 7.60605 85.7368 7.93349L86.3536 8.58075L86.3916 8.61121L90.3819 12.5024L93.7019 15.9367L95.0955 17.4902L98.3089 20.9169L101.248 23.9171L101.241 23.9324L102.132 24.8233L103.479 26.3234C103.693 26.6813 103.883 26.8412 104.043 26.8108C104.218 26.7956 104.363 26.6813 104.485 26.4681L104.477 26.4529C104.561 26.293 104.652 26.1711 104.759 26.095L105.49 25.3183L109.96 20.7874L112.008 18.6096L112.031 18.6019L117.087 13.2715L118.199 12.0531H118.214L120.011 10.0809C121.024 9.14425 121.679 8.74067 121.961 8.85489C122.151 8.97673 122.235 9.30417 122.227 9.84482L122.197 10.6596L122.273 16.2718L122.288 19.1426L122.303 19.1731L122.372 24.5187L122.349 24.5263L122.395 37.7534C122.402 38.1798 122.372 38.6139 122.311 39.0403V39.0631C122.265 39.3449 122.456 39.5353 122.882 39.6114L123.933 39.6266C123.941 39.6266 123.948 39.6266 123.948 39.6342C124.504 39.6876 124.778 39.5276 124.778 39.1317L124.809 38.4387L124.992 14.6346L124.961 9.92097L124.999 8.87012L124.938 3.18941V1.89488C124.961 1.59029 124.923 1.37707 124.824 1.26285C124.656 1.12578 124.481 1.17147 124.306 1.40753L124.032 1.78828L122.669 3.41025L120.156 6.07546L119.136 7.21769L117.963 8.62644L115.876 10.9033L115.397 11.3602L110.401 16.5535L109.206 17.9318H109.198C108.894 18.3278 108.536 18.7162 108.14 19.0969L107.751 19.47L106.396 20.9549L104.309 22.8434C103.967 23.0719 103.662 23.0033 103.388 22.6226L103.365 22.6074C102.787 21.9296 101.949 21.0692 100.868 20.0183L98.6745 17.6729L92.2475 10.9947Z" fill="white"/>
<path d="M8.25019 23.9064C8.05982 24.3557 7.8466 24.8126 7.61054 25.2543L6.0571 28.2393C5.88957 28.6124 5.67636 29.0313 5.42507 29.4958L3.66603 32.7854L2.82839 34.4378C2.65325 34.7043 2.50095 34.9861 2.38673 35.2679C2.34104 35.4125 2.25728 35.5801 2.12782 35.7857C1.98314 35.9836 1.88415 36.174 1.81561 36.3415C1.57194 36.8061 1.2978 37.2782 0.970359 37.7655L0.0413449 39.1667C-0.0728784 39.4256 0.0489593 39.555 0.414474 39.5626L1.79277 39.4484L1.80038 39.5093L2.69133 39.418C3.00354 39.3799 3.27006 39.2885 3.47566 39.121C3.68126 38.9535 3.86402 38.6565 4.0087 38.23C4.19146 37.7884 4.39706 37.3391 4.64074 36.8898L9.95592 26.4498L11.9358 22.4825L13.7253 19.0329L14.4716 17.746L14.8675 16.9388C15.2483 16.2383 15.5833 15.5758 15.8727 14.959L16.5352 13.5807C16.8779 12.7583 17.2738 11.913 17.7383 11.0601L18.1039 10.2377C18.3171 9.84175 18.477 9.52193 18.576 9.29348C18.6064 9.15641 18.6521 9.02696 18.713 8.92035L19.2994 7.79335C19.4974 7.40499 19.6573 7.01663 19.7867 6.62827C19.9695 6.29321 20.0609 5.92009 20.0685 5.52411C20.038 5.13575 20.1294 4.90731 20.3426 4.82354C20.4645 4.81593 20.5635 4.86162 20.6244 4.96823C20.6853 5.08245 20.731 5.18906 20.7691 5.29566C20.7995 5.39466 20.8681 5.5698 20.9747 5.82871C21.0584 6.04954 21.2183 6.38459 21.4468 6.82625L22.2083 8.1817L25.7035 15.2864L27.1427 18.4313L27.4092 19.2081L27.691 19.8096L28.4525 21.5687L29.1683 22.9927L29.8917 24.6755L32.7244 30.4933C33.2575 31.5594 33.7753 32.6255 34.2626 33.6992L35.1764 35.5268L36.2044 37.3924C36.3034 37.5675 36.4024 37.7579 36.5014 37.9711C36.5623 38.1463 36.6537 38.3214 36.7527 38.4889L37.0345 38.9382C37.1944 39.1743 37.3543 39.3494 37.5142 39.456C37.7122 39.5779 37.9406 39.5931 38.1919 39.5017C38.4432 39.4636 38.6945 39.456 38.9382 39.4941C39.2961 39.6007 39.555 39.6007 39.7149 39.5093C39.8977 39.3799 39.8291 39.121 39.5169 38.7479L38.3214 36.4938L37.2629 34.0038L36.4253 32.2447L35.3135 30.105L32.2828 23.9064L31.0263 21.1879L27.889 14.6239L26.6706 11.913C26.2442 11.2353 25.9396 10.5652 25.7492 9.89505L25.673 9.75799C25.0562 8.27308 24.3252 6.70442 23.48 5.04437C23.2058 4.32858 22.9317 3.78792 22.6576 3.43763C22.4215 2.73706 22.0788 2.01365 21.6143 1.26739C21.226 0.528746 20.9366 0.109929 20.7386 0.00332047C20.5178 -0.034754 20.2741 0.254609 20.0076 0.871414L18.7968 3.39194L17.9592 4.99868L17.1825 6.33129L15.134 10.4053L14.1365 12.5603L12.8877 15.0046L12.4841 15.5605L8.25019 23.9064Z" fill="white"/>
</svg>
