<svg width="38" height="37" viewBox="0 0 38 37" fill="none" xmlns="http://www.w3.org/2000/svg">
<path fill-rule="evenodd" clip-rule="evenodd" d="M27.4444 0.476562H10.5556C4.72589 0.476562 0 4.83591 0 10.2134V25.7924C0 31.1698 4.72589 35.5292 10.5556 35.5292H27.4444C33.2741 35.5292 38 31.1698 38 25.7924V10.2134C38 4.83591 33.2741 0.476562 27.4444 0.476562ZM34.3056 25.7924C34.2939 29.2832 31.2288 32.1106 27.4444 32.1213H10.5556C6.77107 32.1106 3.70603 29.2832 3.69444 25.7924V10.2134C3.70603 6.72246 6.77107 3.89515 10.5556 3.88446H27.4444C31.2288 3.89515 34.2939 6.72246 34.3056 10.2134V25.7924ZM29.0278 10.7003C30.1937 10.7003 31.1389 9.82838 31.1389 8.75288C31.1389 7.67739 30.1937 6.80551 29.0278 6.80551C27.8618 6.80551 26.9167 7.67739 26.9167 8.75288C26.9167 9.82838 27.8618 10.7003 29.0278 10.7003ZM19 9.23973C13.7533 9.23973 9.5 13.1631 9.5 18.0029C9.5 22.8427 13.7533 26.7661 19 26.7661C24.2467 26.7661 28.5 22.8427 28.5 18.0029C28.5057 15.6771 27.5065 13.4452 25.7237 11.8007C23.9408 10.1561 21.5213 9.23454 19 9.23973ZM13.1944 18.0029C13.1944 20.9606 15.7936 23.3582 19 23.3582C22.2064 23.3582 24.8056 20.9606 24.8056 18.0029C24.8056 15.0452 22.2064 12.6476 19 12.6476C15.7936 12.6476 13.1944 15.0452 13.1944 18.0029Z" fill="white"/>
</svg>
